<svg width="34" height="34" viewBox="0 0 34 34" fill="none" xmlns="http://www.w3.org/2000/svg">
<path d="M16.88 0.87C15.7 -0.29 13.8 -0.29 12.64 0.87L1.32 12.19C0.16 13.35 0.16 15.25 1.32 16.43C2.52 17.63 4.44 17.55 5.56 16.43L16.88 5.11C17.4418 4.5475 17.7574 3.785 17.7574 2.99C17.7574 2.195 17.4418 1.4325 16.88 0.87ZM22.54 6.53C22.2628 6.24942 21.9327 6.02665 21.5688 5.87461C21.2049 5.72257 20.8144 5.64428 20.42 5.64428C20.0256 5.64428 19.6351 5.72257 19.2712 5.87461C18.9073 6.02665 18.5772 6.24942 18.3 6.53L6.98 17.85C6.69942 18.1272 6.47665 18.4573 6.32461 18.8212C6.17257 19.1851 6.09428 19.5756 6.09428 19.97C6.09428 20.3644 6.17257 20.7549 6.32461 21.1188C6.47665 21.4827 6.69942 21.8128 6.98 22.09C8.18 23.29 10.1 23.19 11.22 22.09L22.54 10.77C23.7 9.61 23.7 7.71 22.54 6.53ZM24.66 19.97L33.02 28.33C34.2 29.49 34.2 31.39 33.02 32.57C31.84 33.75 29.94 33.75 28.78 32.57L20.42 24.21L16.88 27.75C15.7 28.91 13.8 28.91 12.64 27.75C11.46 26.57 11.46 24.67 12.64 23.49L23.96 12.19C24.2372 11.9094 24.5673 11.6867 24.9312 11.5346C25.2951 11.3826 25.6856 11.3043 26.08 11.3043C26.4744 11.3043 26.8649 11.3826 27.2288 11.5346C27.5927 11.6867 27.9228 11.9094 28.2 12.19C29.36 13.35 29.36 15.25 28.2 16.43L24.66 19.97ZM6 27.55C6 24.37 2.68 19.55 2.68 19.55C2.68 19.55 0 25.11 0 27.55C0 29.99 1.2 31.55 2.68 31.55H3.32C4.8 31.55 6 30.73 6 27.55Z" fill="#FF0909" fill-opacity="0.63"/>
</svg>
